<?xml version="1.0" encoding="UTF-8"?>
<svg version="1.1" xmlns="http://www.w3.org/2000/svg" width="257" height="256">
<path d="M0 0 C0.77969853 -0.00367669 1.55939706 -0.00735338 2.36272281 -0.01114148 C4.97798216 -0.02216311 7.59320175 -0.02601961 10.20848083 -0.02983093 C12.08282599 -0.03609684 13.9571699 -0.04274375 15.83151245 -0.04974365 C21.99028154 -0.07077503 28.14905085 -0.08114662 34.30784607 -0.09111023 C36.42992096 -0.09515842 38.55199573 -0.09927536 40.67407036 -0.10346031 C50.64639915 -0.1225116 60.61872055 -0.13674159 70.59106404 -0.14507228 C82.09127396 -0.15483852 93.59129109 -0.18114236 105.09143311 -0.22157317 C113.98673048 -0.25176957 122.88197271 -0.26654459 131.77732033 -0.26985329 C137.08681827 -0.27220015 142.39611023 -0.28111305 147.70555305 -0.30631447 C152.70508599 -0.32966117 157.7042783 -0.33380189 162.7038517 -0.32355309 C164.53272385 -0.32305918 166.36161314 -0.32933637 168.1904335 -0.34310913 C183.13531331 -0.449305 194.34245194 1.4323296 205.43284607 12.21748352 C213.23270697 20.46264035 216.45396056 28.59185405 216.45111084 39.8432312 C216.45478753 40.62292973 216.45846422 41.40262826 216.46225232 42.20595402 C216.47327395 44.82121336 216.47713045 47.43643295 216.48094177 50.05171204 C216.48720768 51.92605719 216.49385459 53.8004011 216.50085449 55.67474365 C216.52188587 61.83351274 216.53225746 67.99228205 216.54222107 74.15107727 C216.54626926 76.27315217 216.5503862 78.39522693 216.55457115 80.51730156 C216.57362244 90.48963035 216.58785243 100.46195175 216.59618312 110.43429524 C216.60594936 121.93450516 216.6322532 133.43452229 216.67268401 144.93466431 C216.70288041 153.82996168 216.71765543 162.72520391 216.72096413 171.62055153 C216.72331099 176.93004947 216.73222389 182.23934143 216.75742531 187.54878426 C216.78077201 192.54831719 216.78491273 197.5475095 216.77466393 202.5470829 C216.77417002 204.37595505 216.78044721 206.20484435 216.79421997 208.0336647 C216.90041584 222.97854451 215.01878124 234.18568314 204.23362732 245.27607727 C195.98847049 253.07593818 187.85925679 256.29719176 176.60787964 256.29434204 C175.82818111 256.29801873 175.04848258 256.30169542 174.24515682 256.30548352 C171.62989748 256.31650515 169.01467789 256.32036165 166.3993988 256.32417297 C164.52505365 256.33043888 162.65070974 256.33708579 160.77636719 256.34408569 C154.6175981 256.36511707 148.45882879 256.37548866 142.30003357 256.38545227 C140.17795867 256.38950046 138.05588391 256.39361741 135.93380928 256.39780235 C125.96148049 256.41685364 115.98915909 256.43108363 106.0168156 256.43941432 C94.51660568 256.44918056 83.01658855 256.4754844 71.51644653 256.51591522 C62.62114916 256.54611161 53.72590693 256.56088663 44.83055931 256.56419533 C39.52106137 256.5665422 34.21176941 256.57545509 28.90232658 256.60065651 C23.90279365 256.62400321 18.90360134 256.62814393 13.90402794 256.61789513 C12.07515579 256.61740123 10.24626649 256.62367841 8.41744614 256.63745117 C-6.52743367 256.74364704 -17.7345723 254.86201244 -28.82496643 244.07685852 C-36.62482734 235.83170169 -39.84608092 227.70248799 -39.8432312 216.45111084 C-39.84874623 215.28156305 -39.84874623 215.28156305 -39.85437268 214.08838803 C-39.86539431 211.47312868 -39.86925081 208.85790909 -39.87306213 206.24263 C-39.87932804 204.36828485 -39.88597495 202.49394094 -39.89297485 200.61959839 C-39.91400623 194.4608293 -39.92437782 188.30205999 -39.93434143 182.14326477 C-39.93838962 180.02118988 -39.94250657 177.89911511 -39.94669151 175.77704048 C-39.9657428 165.80471169 -39.97997279 155.83239029 -39.98830348 145.8600468 C-39.99806972 134.35983688 -40.02437356 122.85981975 -40.06480438 111.35967773 C-40.09500077 102.46438036 -40.10977579 93.56913813 -40.1130845 84.67379051 C-40.11543136 79.36429257 -40.12434425 74.05500061 -40.14954567 68.74555779 C-40.17289237 63.74602485 -40.17703309 58.74683254 -40.16678429 53.74725914 C-40.16629039 51.91838699 -40.17256757 50.0894977 -40.18634033 48.26067734 C-40.2925362 33.31579753 -38.4109016 22.1086589 -27.62574768 11.01826477 C-19.38059085 3.21840387 -11.25137715 -0.00284972 0 0 Z " fill="#FBF9EF" transform="translate(40.69606018066406,-0.1471710205078125)"/>
<path d="M0 0 C47.52 0 95.04 0 144 0 C144.0825 18.253125 144.165 36.50625 144.25 55.3125 C144.28641602 61.05954346 144.32283203 66.80658691 144.36035156 72.7277832 C144.37841797 79.78747559 144.37841797 79.78747559 144.3817749 83.10050964 C144.3878862 85.39672452 144.40188982 87.69292717 144.42230225 89.98905945 C144.45178894 93.48292069 144.45561717 96.97600279 144.45410156 100.4699707 C144.468494 101.4796481 144.48288643 102.4893255 144.497715 103.52959919 C144.42890558 115.46280265 140.15897069 124.66671882 131.9296875 133.12890625 C124.90570885 139.7735411 117.08893574 144.13126562 107.26702881 144.12025452 C105.84814676 144.12232076 105.84814676 144.12232076 104.40060043 144.12442875 C103.36573627 144.12083064 102.33087212 144.11723253 101.26464844 144.11352539 C99.59867804 144.11370619 99.59867804 144.11370619 97.89905167 144.11389065 C94.30247243 144.11314402 90.70594497 144.1055271 87.109375 144.09765625 C84.88948593 144.09618606 82.66959652 144.09516582 80.44970703 144.09460449 C72.21646607 144.08936057 63.98323253 144.07539939 55.75 144.0625 C37.3525 144.041875 18.955 144.02125 0 144 C0 96.48 0 48.96 0 0 Z " fill="#FBF9EF" transform="translate(113,112)"/>
<path d="M0 0 C21.12 0 42.24 0 64 0 C64 47.52 64 95.04 64 144 C42.88 144 21.76 144 0 144 C0 96.48 0 48.96 0 0 Z " fill="#FE5537" transform="translate(49,112)"/>
<path d="M0 0 C47.52 0 95.04 0 144 0 C144 21.12 144 42.24 144 64 C96.48 64 48.96 64 0 64 C0 42.88 0 21.76 0 0 Z " fill="#FE5537" transform="translate(113,48)"/>
</svg>
